<mxfile host="app.diagrams.net" modified="2024-02-25T18:17:30.838Z" agent="Mozilla/5.0 (Windows NT 10.0; Win64; x64) AppleWebKit/537.36 (KHTML, like Gecko) Chrome/121.0.0.0 Safari/537.36" etag="n_Y8RTxZJqr3RcQg52p9" version="23.1.5" type="device">
  <diagram name="Страница — 1" id="BaSzA_KdGVmAThKUCCkp">
    <mxGraphModel dx="1050" dy="557" grid="1" gridSize="10" guides="1" tooltips="1" connect="1" arrows="1" fold="1" page="1" pageScale="1" pageWidth="827" pageHeight="1169" math="0" shadow="0">
      <root>
        <mxCell id="0" />
        <mxCell id="1" parent="0" />
        <mxCell id="mWwiWpz78vFsQn0vuEMb-13" value="" style="edgeStyle=orthogonalEdgeStyle;rounded=0;orthogonalLoop=1;jettySize=auto;html=1;" edge="1" parent="1" source="mWwiWpz78vFsQn0vuEMb-1" target="mWwiWpz78vFsQn0vuEMb-7">
          <mxGeometry relative="1" as="geometry" />
        </mxCell>
        <mxCell id="mWwiWpz78vFsQn0vuEMb-1" value="&lt;b&gt;&lt;font style=&quot;font-size: 25px;&quot;&gt;Start&lt;/font&gt;&lt;/b&gt;" style="rounded=1;whiteSpace=wrap;html=1;" vertex="1" parent="1">
          <mxGeometry x="340" y="20" width="120" height="60" as="geometry" />
        </mxCell>
        <mxCell id="mWwiWpz78vFsQn0vuEMb-2" value="&lt;div style=&quot;&quot;&gt;&lt;span style=&quot;background-color: initial;&quot;&gt;Блок-схема метода&amp;nbsp;&lt;/span&gt;&lt;b style=&quot;background-color: initial;&quot;&gt;FilterArrayByLength&lt;/b&gt;&lt;/div&gt;" style="text;html=1;align=center;verticalAlign=middle;whiteSpace=wrap;rounded=0;" vertex="1" parent="1">
          <mxGeometry x="680" y="10" width="110" height="30" as="geometry" />
        </mxCell>
        <mxCell id="mWwiWpz78vFsQn0vuEMb-9" value="" style="edgeStyle=orthogonalEdgeStyle;rounded=0;orthogonalLoop=1;jettySize=auto;html=1;" edge="1" parent="1" source="mWwiWpz78vFsQn0vuEMb-7" target="mWwiWpz78vFsQn0vuEMb-8">
          <mxGeometry relative="1" as="geometry" />
        </mxCell>
        <mxCell id="mWwiWpz78vFsQn0vuEMb-7" value="string[ ] array&lt;br&gt;count = 0" style="rounded=0;whiteSpace=wrap;html=1;" vertex="1" parent="1">
          <mxGeometry x="340" y="110" width="120" height="60" as="geometry" />
        </mxCell>
        <mxCell id="mWwiWpz78vFsQn0vuEMb-11" value="" style="edgeStyle=orthogonalEdgeStyle;rounded=0;orthogonalLoop=1;jettySize=auto;html=1;" edge="1" parent="1" source="mWwiWpz78vFsQn0vuEMb-8" target="mWwiWpz78vFsQn0vuEMb-10">
          <mxGeometry relative="1" as="geometry" />
        </mxCell>
        <mxCell id="mWwiWpz78vFsQn0vuEMb-18" value="TRUE" style="edgeLabel;html=1;align=center;verticalAlign=middle;resizable=0;points=[];" vertex="1" connectable="0" parent="mWwiWpz78vFsQn0vuEMb-11">
          <mxGeometry x="-0.53" y="1" relative="1" as="geometry">
            <mxPoint as="offset" />
          </mxGeometry>
        </mxCell>
        <mxCell id="mWwiWpz78vFsQn0vuEMb-8" value="foreach (string item in array)" style="rhombus;whiteSpace=wrap;html=1;rounded=0;" vertex="1" parent="1">
          <mxGeometry x="300" y="210" width="200" height="100" as="geometry" />
        </mxCell>
        <mxCell id="mWwiWpz78vFsQn0vuEMb-14" value="FALSE" style="edgeStyle=orthogonalEdgeStyle;rounded=0;orthogonalLoop=1;jettySize=auto;html=1;entryX=0.962;entryY=0.526;entryDx=0;entryDy=0;entryPerimeter=0;" edge="1" parent="1" source="mWwiWpz78vFsQn0vuEMb-10" target="mWwiWpz78vFsQn0vuEMb-8">
          <mxGeometry relative="1" as="geometry">
            <mxPoint x="510" y="270" as="targetPoint" />
            <Array as="points">
              <mxPoint x="520" y="390" />
              <mxPoint x="520" y="263" />
            </Array>
          </mxGeometry>
        </mxCell>
        <mxCell id="mWwiWpz78vFsQn0vuEMb-16" value="TRUE" style="edgeStyle=orthogonalEdgeStyle;rounded=0;orthogonalLoop=1;jettySize=auto;html=1;" edge="1" parent="1" source="mWwiWpz78vFsQn0vuEMb-10" target="mWwiWpz78vFsQn0vuEMb-15">
          <mxGeometry relative="1" as="geometry" />
        </mxCell>
        <mxCell id="mWwiWpz78vFsQn0vuEMb-10" value="item.Length &amp;lt;= 3" style="rhombus;whiteSpace=wrap;html=1;rounded=0;" vertex="1" parent="1">
          <mxGeometry x="340" y="350" width="120" height="80" as="geometry" />
        </mxCell>
        <mxCell id="mWwiWpz78vFsQn0vuEMb-17" style="edgeStyle=orthogonalEdgeStyle;rounded=0;orthogonalLoop=1;jettySize=auto;html=1;entryX=0;entryY=0.5;entryDx=0;entryDy=0;" edge="1" parent="1" source="mWwiWpz78vFsQn0vuEMb-15" target="mWwiWpz78vFsQn0vuEMb-8">
          <mxGeometry relative="1" as="geometry">
            <Array as="points">
              <mxPoint x="200" y="260" />
            </Array>
          </mxGeometry>
        </mxCell>
        <mxCell id="mWwiWpz78vFsQn0vuEMb-15" value="count++" style="whiteSpace=wrap;html=1;rounded=0;" vertex="1" parent="1">
          <mxGeometry x="130" y="360" width="120" height="60" as="geometry" />
        </mxCell>
        <mxCell id="mWwiWpz78vFsQn0vuEMb-21" value="FALSE" style="edgeStyle=orthogonalEdgeStyle;rounded=0;orthogonalLoop=1;jettySize=auto;html=1;" edge="1" parent="1" source="mWwiWpz78vFsQn0vuEMb-8" target="mWwiWpz78vFsQn0vuEMb-20">
          <mxGeometry relative="1" as="geometry">
            <mxPoint x="390" y="550" as="targetPoint" />
            <mxPoint x="500" y="260" as="sourcePoint" />
            <Array as="points">
              <mxPoint x="600" y="260" />
              <mxPoint x="600" y="450" />
            </Array>
          </mxGeometry>
        </mxCell>
        <mxCell id="mWwiWpz78vFsQn0vuEMb-23" value="" style="edgeStyle=orthogonalEdgeStyle;rounded=0;orthogonalLoop=1;jettySize=auto;html=1;" edge="1" parent="1" source="mWwiWpz78vFsQn0vuEMb-20" target="mWwiWpz78vFsQn0vuEMb-22">
          <mxGeometry relative="1" as="geometry" />
        </mxCell>
        <mxCell id="mWwiWpz78vFsQn0vuEMb-20" value="string[] filteredArray = new string[count]&lt;div&gt;index = 0&lt;br&gt;&lt;/div&gt;" style="rounded=0;whiteSpace=wrap;html=1;" vertex="1" parent="1">
          <mxGeometry x="290" y="500" width="220" height="60" as="geometry" />
        </mxCell>
        <mxCell id="mWwiWpz78vFsQn0vuEMb-25" value="TRUE" style="edgeStyle=orthogonalEdgeStyle;rounded=0;orthogonalLoop=1;jettySize=auto;html=1;" edge="1" parent="1" source="mWwiWpz78vFsQn0vuEMb-22" target="mWwiWpz78vFsQn0vuEMb-24">
          <mxGeometry relative="1" as="geometry" />
        </mxCell>
        <mxCell id="mWwiWpz78vFsQn0vuEMb-31" value="FALSE" style="edgeStyle=orthogonalEdgeStyle;rounded=0;orthogonalLoop=1;jettySize=auto;html=1;" edge="1" parent="1" source="mWwiWpz78vFsQn0vuEMb-22" target="mWwiWpz78vFsQn0vuEMb-30">
          <mxGeometry relative="1" as="geometry" />
        </mxCell>
        <mxCell id="mWwiWpz78vFsQn0vuEMb-22" value="foreach (string item in array)" style="rhombus;whiteSpace=wrap;html=1;rounded=0;" vertex="1" parent="1">
          <mxGeometry x="300" y="610" width="200" height="80" as="geometry" />
        </mxCell>
        <mxCell id="mWwiWpz78vFsQn0vuEMb-28" value="TRUE" style="edgeStyle=orthogonalEdgeStyle;rounded=0;orthogonalLoop=1;jettySize=auto;html=1;" edge="1" parent="1" source="mWwiWpz78vFsQn0vuEMb-24" target="mWwiWpz78vFsQn0vuEMb-27">
          <mxGeometry relative="1" as="geometry" />
        </mxCell>
        <mxCell id="mWwiWpz78vFsQn0vuEMb-32" value="FALSE" style="edgeStyle=orthogonalEdgeStyle;rounded=0;orthogonalLoop=1;jettySize=auto;html=1;" edge="1" parent="1" source="mWwiWpz78vFsQn0vuEMb-24" target="mWwiWpz78vFsQn0vuEMb-22">
          <mxGeometry relative="1" as="geometry">
            <Array as="points">
              <mxPoint x="470" y="770" />
            </Array>
          </mxGeometry>
        </mxCell>
        <mxCell id="mWwiWpz78vFsQn0vuEMb-24" value="item.Length &amp;lt;= 3" style="rhombus;whiteSpace=wrap;html=1;rounded=0;" vertex="1" parent="1">
          <mxGeometry x="335" y="730" width="130" height="80" as="geometry" />
        </mxCell>
        <mxCell id="mWwiWpz78vFsQn0vuEMb-29" style="edgeStyle=orthogonalEdgeStyle;rounded=0;orthogonalLoop=1;jettySize=auto;html=1;entryX=0;entryY=0.5;entryDx=0;entryDy=0;" edge="1" parent="1" source="mWwiWpz78vFsQn0vuEMb-27" target="mWwiWpz78vFsQn0vuEMb-22">
          <mxGeometry relative="1" as="geometry">
            <Array as="points">
              <mxPoint x="180" y="650" />
            </Array>
          </mxGeometry>
        </mxCell>
        <mxCell id="mWwiWpz78vFsQn0vuEMb-27" value="filteredArray[index] = item&lt;br&gt;index++" style="whiteSpace=wrap;html=1;rounded=0;" vertex="1" parent="1">
          <mxGeometry x="110" y="740" width="140" height="60" as="geometry" />
        </mxCell>
        <mxCell id="mWwiWpz78vFsQn0vuEMb-34" value="" style="edgeStyle=orthogonalEdgeStyle;rounded=0;orthogonalLoop=1;jettySize=auto;html=1;" edge="1" parent="1" source="mWwiWpz78vFsQn0vuEMb-30" target="mWwiWpz78vFsQn0vuEMb-33">
          <mxGeometry relative="1" as="geometry" />
        </mxCell>
        <mxCell id="mWwiWpz78vFsQn0vuEMb-30" value="&amp;nbsp;return filteredArray" style="whiteSpace=wrap;html=1;rounded=0;" vertex="1" parent="1">
          <mxGeometry x="620" y="620" width="120" height="60" as="geometry" />
        </mxCell>
        <mxCell id="mWwiWpz78vFsQn0vuEMb-33" value="FINISH" style="rounded=1;whiteSpace=wrap;html=1;" vertex="1" parent="1">
          <mxGeometry x="620" y="740" width="120" height="60" as="geometry" />
        </mxCell>
      </root>
    </mxGraphModel>
  </diagram>
</mxfile>
